<?xml version="1.0" encoding="UTF-8"?>
<svg xmlns="http://www.w3.org/2000/svg" xmlns:xlink="http://www.w3.org/1999/xlink" width="32px" height="32px" viewBox="0 0 32 32" version="1.1">
<g id="surface1">
<rect x="0" y="0" width="32" height="32" style="fill:rgb(88.235294%,84.313725%,83.529412%);fill-opacity:1;stroke:none;"/>
<path style=" stroke:none;fill-rule:nonzero;fill:rgb(35.294118%,39.607843%,98.039216%);fill-opacity:1;" d="M 9 21 L 23 21 L 23 22 L 9 22 Z M 9 21 "/>
<path style=" stroke:none;fill-rule:nonzero;fill:rgb(35.294118%,39.607843%,98.039216%);fill-opacity:1;" d="M 9 22 L 23 22 L 23 23 L 9 23 Z M 9 22 "/>
<path style=" stroke:none;fill-rule:nonzero;fill:rgb(35.294118%,39.607843%,98.039216%);fill-opacity:1;" d="M 9 23 L 23 23 L 23 24 L 9 24 Z M 9 23 "/>
<path style=" stroke:none;fill-rule:nonzero;fill:rgb(35.294118%,39.607843%,98.039216%);fill-opacity:1;" d="M 9 24 L 23 24 L 23 25 L 9 25 Z M 9 24 "/>
<path style=" stroke:none;fill-rule:nonzero;fill:rgb(35.294118%,39.607843%,98.039216%);fill-opacity:1;" d="M 9 25 L 11 25 L 11 26 L 9 26 Z M 9 25 "/>
<path style=" stroke:none;fill-rule:nonzero;fill:rgb(35.294118%,39.607843%,98.039216%);fill-opacity:1;" d="M 12 25 L 23 25 L 23 26 L 12 26 Z M 12 25 "/>
<path style=" stroke:none;fill-rule:nonzero;fill:rgb(35.294118%,39.607843%,98.039216%);fill-opacity:1;" d="M 9 26 L 11 26 L 11 27 L 9 27 Z M 9 26 "/>
<path style=" stroke:none;fill-rule:nonzero;fill:rgb(35.294118%,39.607843%,98.039216%);fill-opacity:1;" d="M 12 26 L 23 26 L 23 27 L 12 27 Z M 12 26 "/>
<path style=" stroke:none;fill-rule:nonzero;fill:rgb(35.294118%,39.607843%,98.039216%);fill-opacity:1;" d="M 9 27 L 11 27 L 11 28 L 9 28 Z M 9 27 "/>
<path style=" stroke:none;fill-rule:nonzero;fill:rgb(35.294118%,39.607843%,98.039216%);fill-opacity:1;" d="M 12 27 L 23 27 L 23 28 L 12 28 Z M 12 27 "/>
<path style=" stroke:none;fill-rule:nonzero;fill:rgb(35.294118%,39.607843%,98.039216%);fill-opacity:1;" d="M 9 28 L 11 28 L 11 29 L 9 29 Z M 9 28 "/>
<path style=" stroke:none;fill-rule:nonzero;fill:rgb(35.294118%,39.607843%,98.039216%);fill-opacity:1;" d="M 12 28 L 23 28 L 23 29 L 12 29 Z M 12 28 "/>
<path style=" stroke:none;fill-rule:nonzero;fill:rgb(35.294118%,39.607843%,98.039216%);fill-opacity:1;" d="M 9 29 L 11 29 L 11 30 L 9 30 Z M 9 29 "/>
<path style=" stroke:none;fill-rule:nonzero;fill:rgb(35.294118%,39.607843%,98.039216%);fill-opacity:1;" d="M 12 29 L 23 29 L 23 30 L 12 30 Z M 12 29 "/>
<path style=" stroke:none;fill-rule:nonzero;fill:rgb(35.294118%,39.607843%,98.039216%);fill-opacity:1;" d="M 9 30 L 11 30 L 11 31 L 9 31 Z M 9 30 "/>
<path style=" stroke:none;fill-rule:nonzero;fill:rgb(35.294118%,39.607843%,98.039216%);fill-opacity:1;" d="M 12 30 L 23 30 L 23 31 L 12 31 Z M 12 30 "/>
<path style=" stroke:none;fill-rule:nonzero;fill:rgb(35.294118%,39.607843%,98.039216%);fill-opacity:1;" d="M 9 31 L 11 31 L 11 32 L 9 32 Z M 9 31 "/>
<path style=" stroke:none;fill-rule:nonzero;fill:rgb(35.294118%,39.607843%,98.039216%);fill-opacity:1;" d="M 12 31 L 23 31 L 23 32 L 12 32 Z M 12 31 "/>
<path style=" stroke:none;fill-rule:nonzero;fill:rgb(0%,64.705882%,33.72549%);fill-opacity:1;" d="M 13 21 L 16 21 L 16 22 L 13 22 Z M 13 21 "/>
<path style=" stroke:none;fill-rule:nonzero;fill:rgb(100%,78.823529%,14.509804%);fill-opacity:1;" d="M 17 21 L 20 21 L 20 22 L 17 22 Z M 17 21 "/>
<path style=" stroke:none;fill-rule:nonzero;fill:rgb(99.607843%,31.372549%,4.705882%);fill-opacity:1;" d="M 21 21 L 23 21 L 23 22 L 21 22 Z M 21 21 "/>
<path style=" stroke:none;fill-rule:nonzero;fill:rgb(62.352941%,12.941176%,62.745098%);fill-opacity:1;" d="M 9 22 L 12 22 L 12 23 L 9 23 Z M 9 22 "/>
<path style=" stroke:none;fill-rule:nonzero;fill:rgb(0%,64.705882%,33.72549%);fill-opacity:1;" d="M 13 22 L 16 22 L 16 23 L 13 23 Z M 13 22 "/>
<path style=" stroke:none;fill-rule:nonzero;fill:rgb(100%,78.823529%,14.509804%);fill-opacity:1;" d="M 17 22 L 20 22 L 20 23 L 17 23 Z M 17 22 "/>
<path style=" stroke:none;fill-rule:nonzero;fill:rgb(62.352941%,12.941176%,62.745098%);fill-opacity:1;" d="M 9 23 L 12 23 L 12 24 L 9 24 Z M 9 23 "/>
<path style=" stroke:none;fill-rule:nonzero;fill:rgb(0%,64.705882%,33.72549%);fill-opacity:1;" d="M 13 23 L 16 23 L 16 24 L 13 24 Z M 13 23 "/>
<path style=" stroke:none;fill-rule:nonzero;fill:rgb(62.352941%,12.941176%,62.745098%);fill-opacity:1;" d="M 20 23 L 23 23 L 23 24 L 20 24 Z M 20 23 "/>
<path style=" stroke:none;fill-rule:nonzero;fill:rgb(62.352941%,12.941176%,62.745098%);fill-opacity:1;" d="M 9 24 L 12 24 L 12 25 L 9 25 Z M 9 24 "/>
<path style=" stroke:none;fill-rule:nonzero;fill:rgb(77.254902%,1.176471%,5.490196%);fill-opacity:1;" d="M 16 24 L 19 24 L 19 25 L 16 25 Z M 16 24 "/>
<path style=" stroke:none;fill-rule:nonzero;fill:rgb(62.352941%,12.941176%,62.745098%);fill-opacity:1;" d="M 20 24 L 23 24 L 23 25 L 20 25 Z M 20 24 "/>
<path style=" stroke:none;fill-rule:nonzero;fill:rgb(99.607843%,31.372549%,4.705882%);fill-opacity:1;" d="M 12 25 L 15 25 L 15 26 L 12 26 Z M 12 25 "/>
<path style=" stroke:none;fill-rule:nonzero;fill:rgb(77.254902%,1.176471%,5.490196%);fill-opacity:1;" d="M 16 25 L 19 25 L 19 26 L 16 26 Z M 16 25 "/>
<path style=" stroke:none;fill-rule:nonzero;fill:rgb(62.352941%,12.941176%,62.745098%);fill-opacity:1;" d="M 20 25 L 23 25 L 23 26 L 20 26 Z M 20 25 "/>
<path style=" stroke:none;fill-rule:nonzero;fill:rgb(100%,78.823529%,14.509804%);fill-opacity:1;" d="M 9 26 L 11 26 L 11 27 L 9 27 Z M 9 26 "/>
<path style=" stroke:none;fill-rule:nonzero;fill:rgb(99.607843%,31.372549%,4.705882%);fill-opacity:1;" d="M 12 26 L 15 26 L 15 27 L 12 27 Z M 12 26 "/>
<path style=" stroke:none;fill-rule:nonzero;fill:rgb(77.254902%,1.176471%,5.490196%);fill-opacity:1;" d="M 16 26 L 19 26 L 19 27 L 16 27 Z M 16 26 "/>
<path style=" stroke:none;fill-rule:nonzero;fill:rgb(100%,78.823529%,14.509804%);fill-opacity:1;" d="M 9 27 L 11 27 L 11 28 L 9 28 Z M 9 27 "/>
<path style=" stroke:none;fill-rule:nonzero;fill:rgb(99.607843%,31.372549%,4.705882%);fill-opacity:1;" d="M 12 27 L 15 27 L 15 28 L 12 28 Z M 12 27 "/>
<path style=" stroke:none;fill-rule:nonzero;fill:rgb(100%,78.823529%,14.509804%);fill-opacity:1;" d="M 19 27 L 22 27 L 22 28 L 19 28 Z M 19 27 "/>
<path style=" stroke:none;fill-rule:nonzero;fill:rgb(100%,78.823529%,14.509804%);fill-opacity:1;" d="M 9 28 L 11 28 L 11 29 L 9 29 Z M 9 28 "/>
<path style=" stroke:none;fill-rule:nonzero;fill:rgb(0%,64.705882%,33.72549%);fill-opacity:1;" d="M 15 28 L 18 28 L 18 29 L 15 29 Z M 15 28 "/>
<path style=" stroke:none;fill-rule:nonzero;fill:rgb(100%,78.823529%,14.509804%);fill-opacity:1;" d="M 19 28 L 22 28 L 22 29 L 19 29 Z M 19 28 "/>
<path style=" stroke:none;fill-rule:nonzero;fill:rgb(62.352941%,12.941176%,62.745098%);fill-opacity:1;" d="M 12 29 L 14 29 L 14 30 L 12 30 Z M 12 29 "/>
<path style=" stroke:none;fill-rule:nonzero;fill:rgb(0%,64.705882%,33.72549%);fill-opacity:1;" d="M 15 29 L 18 29 L 18 30 L 15 30 Z M 15 29 "/>
<path style=" stroke:none;fill-rule:nonzero;fill:rgb(100%,78.823529%,14.509804%);fill-opacity:1;" d="M 19 29 L 22 29 L 22 30 L 19 30 Z M 19 29 "/>
<path style=" stroke:none;fill-rule:nonzero;fill:rgb(77.254902%,1.176471%,5.490196%);fill-opacity:1;" d="M 9 30 L 10 30 L 10 31 L 9 31 Z M 9 30 "/>
<path style=" stroke:none;fill-rule:nonzero;fill:rgb(62.352941%,12.941176%,62.745098%);fill-opacity:1;" d="M 12 30 L 14 30 L 14 31 L 12 31 Z M 12 30 "/>
<path style=" stroke:none;fill-rule:nonzero;fill:rgb(0%,64.705882%,33.72549%);fill-opacity:1;" d="M 15 30 L 18 30 L 18 31 L 15 31 Z M 15 30 "/>
<path style=" stroke:none;fill-rule:nonzero;fill:rgb(62.352941%,12.941176%,62.745098%);fill-opacity:1;" d="M 22 30 L 23 30 L 23 31 L 22 31 Z M 22 30 "/>
<path style=" stroke:none;fill-rule:nonzero;fill:rgb(77.254902%,1.176471%,5.490196%);fill-opacity:1;" d="M 9 31 L 10 31 L 10 32 L 9 32 Z M 9 31 "/>
<path style=" stroke:none;fill-rule:nonzero;fill:rgb(62.352941%,12.941176%,62.745098%);fill-opacity:1;" d="M 12 31 L 14 31 L 14 32 L 12 32 Z M 12 31 "/>
<path style=" stroke:none;fill-rule:nonzero;fill:rgb(77.254902%,1.176471%,5.490196%);fill-opacity:1;" d="M 18 31 L 21 31 L 21 32 L 18 32 Z M 18 31 "/>
<path style=" stroke:none;fill-rule:nonzero;fill:rgb(62.352941%,12.941176%,62.745098%);fill-opacity:1;" d="M 22 31 L 23 31 L 23 32 L 22 32 Z M 22 31 "/>
<path style=" stroke:none;fill-rule:nonzero;fill:rgb(29.411765%,39.607843%,96.862745%);fill-opacity:1;" d="M 22 4 L 26 4 L 26 5 L 22 5 Z M 22 4 "/>
<path style=" stroke:none;fill-rule:nonzero;fill:rgb(29.411765%,91.764706%,41.176471%);fill-opacity:1;" d="M 14 5 L 18 5 L 18 6 L 14 6 Z M 14 5 "/>
<path style=" stroke:none;fill-rule:nonzero;fill:rgb(29.411765%,39.607843%,96.862745%);fill-opacity:1;" d="M 22 5 L 26 5 L 26 6 L 22 6 Z M 22 5 "/>
<path style=" stroke:none;fill-rule:nonzero;fill:rgb(29.411765%,91.764706%,41.176471%);fill-opacity:1;" d="M 14 6 L 18 6 L 18 7 L 14 7 Z M 14 6 "/>
<path style=" stroke:none;fill-rule:nonzero;fill:rgb(29.411765%,39.607843%,96.862745%);fill-opacity:1;" d="M 22 6 L 26 6 L 26 7 L 22 7 Z M 22 6 "/>
<path style=" stroke:none;fill-rule:nonzero;fill:rgb(29.411765%,91.764706%,41.176471%);fill-opacity:1;" d="M 14 7 L 18 7 L 18 8 L 14 8 Z M 14 7 "/>
<path style=" stroke:none;fill-rule:nonzero;fill:rgb(100%,10.196078%,82.352941%);fill-opacity:1;" d="M 18 7 L 22 7 L 22 8 L 18 8 Z M 18 7 "/>
<path style=" stroke:none;fill-rule:nonzero;fill:rgb(29.411765%,39.607843%,96.862745%);fill-opacity:1;" d="M 22 7 L 26 7 L 26 8 L 22 8 Z M 22 7 "/>
<path style=" stroke:none;fill-rule:nonzero;fill:rgb(100%,93.72549%,8.627451%);fill-opacity:1;" d="M 10 8 L 14 8 L 14 9 L 10 9 Z M 10 8 "/>
<path style=" stroke:none;fill-rule:nonzero;fill:rgb(29.411765%,91.764706%,41.176471%);fill-opacity:1;" d="M 14 8 L 18 8 L 18 9 L 14 9 Z M 14 8 "/>
<path style=" stroke:none;fill-rule:nonzero;fill:rgb(100%,10.196078%,82.352941%);fill-opacity:1;" d="M 18 8 L 22 8 L 22 9 L 18 9 Z M 18 8 "/>
<path style=" stroke:none;fill-rule:nonzero;fill:rgb(29.411765%,39.607843%,96.862745%);fill-opacity:1;" d="M 22 8 L 26 8 L 26 9 L 22 9 Z M 22 8 "/>
<path style=" stroke:none;fill-rule:nonzero;fill:rgb(100%,93.72549%,8.627451%);fill-opacity:1;" d="M 10 9 L 14 9 L 14 10 L 10 10 Z M 10 9 "/>
<path style=" stroke:none;fill-rule:nonzero;fill:rgb(29.411765%,91.764706%,41.176471%);fill-opacity:1;" d="M 14 9 L 18 9 L 18 10 L 14 10 Z M 14 9 "/>
<path style=" stroke:none;fill-rule:nonzero;fill:rgb(100%,10.196078%,82.352941%);fill-opacity:1;" d="M 18 9 L 22 9 L 22 10 L 18 10 Z M 18 9 "/>
<path style=" stroke:none;fill-rule:nonzero;fill:rgb(29.411765%,39.607843%,96.862745%);fill-opacity:1;" d="M 22 9 L 26 9 L 26 10 L 22 10 Z M 22 9 "/>
<path style=" stroke:none;fill-rule:nonzero;fill:rgb(100%,93.72549%,8.627451%);fill-opacity:1;" d="M 10 10 L 14 10 L 14 11 L 10 11 Z M 10 10 "/>
<path style=" stroke:none;fill-rule:nonzero;fill:rgb(29.411765%,91.764706%,41.176471%);fill-opacity:1;" d="M 14 10 L 18 10 L 18 11 L 14 11 Z M 14 10 "/>
<path style=" stroke:none;fill-rule:nonzero;fill:rgb(100%,10.196078%,82.352941%);fill-opacity:1;" d="M 18 10 L 22 10 L 22 11 L 18 11 Z M 18 10 "/>
<path style=" stroke:none;fill-rule:nonzero;fill:rgb(29.411765%,39.607843%,96.862745%);fill-opacity:1;" d="M 22 10 L 26 10 L 26 11 L 22 11 Z M 22 10 "/>
<path style=" stroke:none;fill-rule:nonzero;fill:rgb(91.372549%,14.901961%,36.078431%);fill-opacity:1;" d="M 6 11 L 10 11 L 10 12 L 6 12 Z M 6 11 "/>
<path style=" stroke:none;fill-rule:nonzero;fill:rgb(100%,93.72549%,8.627451%);fill-opacity:1;" d="M 10 11 L 14 11 L 14 12 L 10 12 Z M 10 11 "/>
<path style=" stroke:none;fill-rule:nonzero;fill:rgb(29.411765%,91.764706%,41.176471%);fill-opacity:1;" d="M 14 11 L 18 11 L 18 12 L 14 12 Z M 14 11 "/>
<path style=" stroke:none;fill-rule:nonzero;fill:rgb(100%,10.196078%,82.352941%);fill-opacity:1;" d="M 18 11 L 22 11 L 22 12 L 18 12 Z M 18 11 "/>
<path style=" stroke:none;fill-rule:nonzero;fill:rgb(29.411765%,39.607843%,96.862745%);fill-opacity:1;" d="M 22 11 L 26 11 L 26 12 L 22 12 Z M 22 11 "/>
<path style=" stroke:none;fill-rule:nonzero;fill:rgb(91.372549%,14.901961%,36.078431%);fill-opacity:1;" d="M 6 12 L 10 12 L 10 13 L 6 13 Z M 6 12 "/>
<path style=" stroke:none;fill-rule:nonzero;fill:rgb(100%,93.72549%,8.627451%);fill-opacity:1;" d="M 10 12 L 14 12 L 14 13 L 10 13 Z M 10 12 "/>
<path style=" stroke:none;fill-rule:nonzero;fill:rgb(29.411765%,91.764706%,41.176471%);fill-opacity:1;" d="M 14 12 L 18 12 L 18 13 L 14 13 Z M 14 12 "/>
<path style=" stroke:none;fill-rule:nonzero;fill:rgb(100%,10.196078%,82.352941%);fill-opacity:1;" d="M 18 12 L 22 12 L 22 13 L 18 13 Z M 18 12 "/>
<path style=" stroke:none;fill-rule:nonzero;fill:rgb(29.411765%,39.607843%,96.862745%);fill-opacity:1;" d="M 22 12 L 26 12 L 26 13 L 22 13 Z M 22 12 "/>
<path style=" stroke:none;fill-rule:nonzero;fill:rgb(91.372549%,14.901961%,36.078431%);fill-opacity:1;" d="M 6 13 L 10 13 L 10 14 L 6 14 Z M 6 13 "/>
<path style=" stroke:none;fill-rule:nonzero;fill:rgb(100%,93.72549%,8.627451%);fill-opacity:1;" d="M 10 13 L 14 13 L 14 14 L 10 14 Z M 10 13 "/>
<path style=" stroke:none;fill-rule:nonzero;fill:rgb(29.411765%,91.764706%,41.176471%);fill-opacity:1;" d="M 14 13 L 18 13 L 18 14 L 14 14 Z M 14 13 "/>
<path style=" stroke:none;fill-rule:nonzero;fill:rgb(100%,10.196078%,82.352941%);fill-opacity:1;" d="M 18 13 L 22 13 L 22 14 L 18 14 Z M 18 13 "/>
<path style=" stroke:none;fill-rule:nonzero;fill:rgb(29.411765%,39.607843%,96.862745%);fill-opacity:1;" d="M 22 13 L 26 13 L 26 14 L 22 14 Z M 22 13 "/>
<path style=" stroke:none;fill-rule:nonzero;fill:rgb(91.372549%,14.901961%,36.078431%);fill-opacity:1;" d="M 6 14 L 10 14 L 10 15 L 6 15 Z M 6 14 "/>
<path style=" stroke:none;fill-rule:nonzero;fill:rgb(100%,93.72549%,8.627451%);fill-opacity:1;" d="M 10 14 L 14 14 L 14 15 L 10 15 Z M 10 14 "/>
<path style=" stroke:none;fill-rule:nonzero;fill:rgb(29.411765%,91.764706%,41.176471%);fill-opacity:1;" d="M 14 14 L 18 14 L 18 15 L 14 15 Z M 14 14 "/>
<path style=" stroke:none;fill-rule:nonzero;fill:rgb(100%,10.196078%,82.352941%);fill-opacity:1;" d="M 18 14 L 22 14 L 22 15 L 18 15 Z M 18 14 "/>
<path style=" stroke:none;fill-rule:nonzero;fill:rgb(29.411765%,39.607843%,96.862745%);fill-opacity:1;" d="M 22 14 L 26 14 L 26 15 L 22 15 Z M 22 14 "/>
<path style=" stroke:none;fill-rule:nonzero;fill:rgb(91.372549%,14.901961%,36.078431%);fill-opacity:1;" d="M 6 15 L 10 15 L 10 16 L 6 16 Z M 6 15 "/>
<path style=" stroke:none;fill-rule:nonzero;fill:rgb(100%,93.72549%,8.627451%);fill-opacity:1;" d="M 10 15 L 14 15 L 14 16 L 10 16 Z M 10 15 "/>
<path style=" stroke:none;fill-rule:nonzero;fill:rgb(29.411765%,91.764706%,41.176471%);fill-opacity:1;" d="M 14 15 L 18 15 L 18 16 L 14 16 Z M 14 15 "/>
<path style=" stroke:none;fill-rule:nonzero;fill:rgb(100%,10.196078%,82.352941%);fill-opacity:1;" d="M 18 15 L 22 15 L 22 16 L 18 16 Z M 18 15 "/>
<path style=" stroke:none;fill-rule:nonzero;fill:rgb(29.411765%,39.607843%,96.862745%);fill-opacity:1;" d="M 22 15 L 26 15 L 26 16 L 22 16 Z M 22 15 "/>
<path style=" stroke:none;fill-rule:nonzero;fill:rgb(91.372549%,14.901961%,36.078431%);fill-opacity:1;" d="M 6 16 L 10 16 L 10 17 L 6 17 Z M 6 16 "/>
<path style=" stroke:none;fill-rule:nonzero;fill:rgb(100%,93.72549%,8.627451%);fill-opacity:1;" d="M 10 16 L 14 16 L 14 17 L 10 17 Z M 10 16 "/>
<path style=" stroke:none;fill-rule:nonzero;fill:rgb(29.411765%,91.764706%,41.176471%);fill-opacity:1;" d="M 14 16 L 18 16 L 18 17 L 14 17 Z M 14 16 "/>
<path style=" stroke:none;fill-rule:nonzero;fill:rgb(100%,10.196078%,82.352941%);fill-opacity:1;" d="M 18 16 L 22 16 L 22 17 L 18 17 Z M 18 16 "/>
<path style=" stroke:none;fill-rule:nonzero;fill:rgb(29.411765%,39.607843%,96.862745%);fill-opacity:1;" d="M 22 16 L 26 16 L 26 17 L 22 17 Z M 22 16 "/>
<path style=" stroke:none;fill-rule:nonzero;fill:rgb(91.372549%,14.901961%,36.078431%);fill-opacity:1;" d="M 6 17 L 10 17 L 10 18 L 6 18 Z M 6 17 "/>
<path style=" stroke:none;fill-rule:nonzero;fill:rgb(100%,93.72549%,8.627451%);fill-opacity:1;" d="M 10 17 L 14 17 L 14 18 L 10 18 Z M 10 17 "/>
<path style=" stroke:none;fill-rule:nonzero;fill:rgb(29.411765%,91.764706%,41.176471%);fill-opacity:1;" d="M 14 17 L 18 17 L 18 18 L 14 18 Z M 14 17 "/>
<path style=" stroke:none;fill-rule:nonzero;fill:rgb(100%,10.196078%,82.352941%);fill-opacity:1;" d="M 18 17 L 22 17 L 22 18 L 18 18 Z M 18 17 "/>
<path style=" stroke:none;fill-rule:nonzero;fill:rgb(29.411765%,39.607843%,96.862745%);fill-opacity:1;" d="M 22 17 L 26 17 L 26 18 L 22 18 Z M 22 17 "/>
<path style=" stroke:none;fill-rule:nonzero;fill:rgb(91.372549%,14.901961%,36.078431%);fill-opacity:1;" d="M 6 18 L 10 18 L 10 19 L 6 19 Z M 6 18 "/>
<path style=" stroke:none;fill-rule:nonzero;fill:rgb(100%,93.72549%,8.627451%);fill-opacity:1;" d="M 10 18 L 14 18 L 14 19 L 10 19 Z M 10 18 "/>
<path style=" stroke:none;fill-rule:nonzero;fill:rgb(29.411765%,91.764706%,41.176471%);fill-opacity:1;" d="M 14 18 L 15 18 L 15 19 L 14 19 Z M 14 18 "/>
<path style=" stroke:none;fill-rule:nonzero;fill:rgb(0%,0%,0%);fill-opacity:1;" d="M 15 18 L 21 18 L 21 19 L 15 19 Z M 15 18 "/>
<path style=" stroke:none;fill-rule:nonzero;fill:rgb(100%,10.196078%,82.352941%);fill-opacity:1;" d="M 21 18 L 22 18 L 22 19 L 21 19 Z M 21 18 "/>
<path style=" stroke:none;fill-rule:nonzero;fill:rgb(29.411765%,39.607843%,96.862745%);fill-opacity:1;" d="M 22 18 L 26 18 L 26 19 L 22 19 Z M 22 18 "/>
<path style=" stroke:none;fill-rule:nonzero;fill:rgb(91.372549%,14.901961%,36.078431%);fill-opacity:1;" d="M 6 19 L 10 19 L 10 20 L 6 20 Z M 6 19 "/>
<path style=" stroke:none;fill-rule:nonzero;fill:rgb(100%,93.72549%,8.627451%);fill-opacity:1;" d="M 10 19 L 14 19 L 14 20 L 10 20 Z M 10 19 "/>
<path style=" stroke:none;fill-rule:nonzero;fill:rgb(29.411765%,91.764706%,41.176471%);fill-opacity:1;" d="M 14 19 L 18 19 L 18 20 L 14 20 Z M 14 19 "/>
<path style=" stroke:none;fill-rule:nonzero;fill:rgb(100%,10.196078%,82.352941%);fill-opacity:1;" d="M 18 19 L 22 19 L 22 20 L 18 20 Z M 18 19 "/>
<path style=" stroke:none;fill-rule:nonzero;fill:rgb(29.411765%,39.607843%,96.862745%);fill-opacity:1;" d="M 22 19 L 26 19 L 26 20 L 22 20 Z M 22 19 "/>
<path style=" stroke:none;fill-rule:nonzero;fill:rgb(91.372549%,14.901961%,36.078431%);fill-opacity:1;" d="M 6 20 L 10 20 L 10 21 L 6 21 Z M 6 20 "/>
<path style=" stroke:none;fill-rule:nonzero;fill:rgb(100%,93.72549%,8.627451%);fill-opacity:1;" d="M 10 20 L 14 20 L 14 21 L 10 21 Z M 10 20 "/>
<path style=" stroke:none;fill-rule:nonzero;fill:rgb(29.411765%,91.764706%,41.176471%);fill-opacity:1;" d="M 14 20 L 18 20 L 18 21 L 14 21 Z M 14 20 "/>
<path style=" stroke:none;fill-rule:nonzero;fill:rgb(100%,10.196078%,82.352941%);fill-opacity:1;" d="M 18 20 L 22 20 L 22 21 L 18 21 Z M 18 20 "/>
<path style=" stroke:none;fill-rule:nonzero;fill:rgb(29.411765%,39.607843%,96.862745%);fill-opacity:1;" d="M 22 20 L 26 20 L 26 21 L 22 21 Z M 22 20 "/>
<path style=" stroke:none;fill-rule:nonzero;fill:rgb(29.411765%,91.764706%,41.176471%);fill-opacity:1;" d="M 10 11 L 16 11 L 16 12 L 10 12 Z M 10 11 "/>
<path style=" stroke:none;fill-rule:nonzero;fill:rgb(29.411765%,91.764706%,41.176471%);fill-opacity:1;" d="M 17 11 L 23 11 L 23 12 L 17 12 Z M 17 11 "/>
<path style=" stroke:none;fill-rule:nonzero;fill:rgb(29.411765%,91.764706%,41.176471%);fill-opacity:1;" d="M 10 12 L 11 12 L 11 13 L 10 13 Z M 10 12 "/>
<path style=" stroke:none;fill-rule:nonzero;fill:rgb(100%,100%,100%);fill-opacity:1;" d="M 11 12 L 13 12 L 13 13 L 11 13 Z M 11 12 "/>
<path style=" stroke:none;fill-rule:nonzero;fill:rgb(0%,0%,0%);fill-opacity:1;" d="M 13 12 L 15 12 L 15 13 L 13 13 Z M 13 12 "/>
<path style=" stroke:none;fill-rule:nonzero;fill:rgb(29.411765%,91.764706%,41.176471%);fill-opacity:1;" d="M 15 12 L 16 12 L 16 13 L 15 13 Z M 15 12 "/>
<path style=" stroke:none;fill-rule:nonzero;fill:rgb(29.411765%,91.764706%,41.176471%);fill-opacity:1;" d="M 17 12 L 18 12 L 18 13 L 17 13 Z M 17 12 "/>
<path style=" stroke:none;fill-rule:nonzero;fill:rgb(100%,100%,100%);fill-opacity:1;" d="M 18 12 L 20 12 L 20 13 L 18 13 Z M 18 12 "/>
<path style=" stroke:none;fill-rule:nonzero;fill:rgb(0%,0%,0%);fill-opacity:1;" d="M 20 12 L 22 12 L 22 13 L 20 13 Z M 20 12 "/>
<path style=" stroke:none;fill-rule:nonzero;fill:rgb(29.411765%,91.764706%,41.176471%);fill-opacity:1;" d="M 22 12 L 23 12 L 23 13 L 22 13 Z M 22 12 "/>
<path style=" stroke:none;fill-rule:nonzero;fill:rgb(29.411765%,91.764706%,41.176471%);fill-opacity:1;" d="M 7 13 L 11 13 L 11 14 L 7 14 Z M 7 13 "/>
<path style=" stroke:none;fill-rule:nonzero;fill:rgb(100%,100%,100%);fill-opacity:1;" d="M 11 13 L 13 13 L 13 14 L 11 14 Z M 11 13 "/>
<path style=" stroke:none;fill-rule:nonzero;fill:rgb(0%,0%,0%);fill-opacity:1;" d="M 13 13 L 15 13 L 15 14 L 13 14 Z M 13 13 "/>
<path style=" stroke:none;fill-rule:nonzero;fill:rgb(29.411765%,91.764706%,41.176471%);fill-opacity:1;" d="M 15 13 L 18 13 L 18 14 L 15 14 Z M 15 13 "/>
<path style=" stroke:none;fill-rule:nonzero;fill:rgb(100%,100%,100%);fill-opacity:1;" d="M 18 13 L 20 13 L 20 14 L 18 14 Z M 18 13 "/>
<path style=" stroke:none;fill-rule:nonzero;fill:rgb(0%,0%,0%);fill-opacity:1;" d="M 20 13 L 22 13 L 22 14 L 20 14 Z M 20 13 "/>
<path style=" stroke:none;fill-rule:nonzero;fill:rgb(29.411765%,91.764706%,41.176471%);fill-opacity:1;" d="M 22 13 L 23 13 L 23 14 L 22 14 Z M 22 13 "/>
<path style=" stroke:none;fill-rule:nonzero;fill:rgb(29.411765%,91.764706%,41.176471%);fill-opacity:1;" d="M 7 14 L 8 14 L 8 15 L 7 15 Z M 7 14 "/>
<path style=" stroke:none;fill-rule:nonzero;fill:rgb(29.411765%,91.764706%,41.176471%);fill-opacity:1;" d="M 10 14 L 11 14 L 11 15 L 10 15 Z M 10 14 "/>
<path style=" stroke:none;fill-rule:nonzero;fill:rgb(100%,100%,100%);fill-opacity:1;" d="M 11 14 L 13 14 L 13 15 L 11 15 Z M 11 14 "/>
<path style=" stroke:none;fill-rule:nonzero;fill:rgb(0%,0%,0%);fill-opacity:1;" d="M 13 14 L 15 14 L 15 15 L 13 15 Z M 13 14 "/>
<path style=" stroke:none;fill-rule:nonzero;fill:rgb(29.411765%,91.764706%,41.176471%);fill-opacity:1;" d="M 15 14 L 16 14 L 16 15 L 15 15 Z M 15 14 "/>
<path style=" stroke:none;fill-rule:nonzero;fill:rgb(29.411765%,91.764706%,41.176471%);fill-opacity:1;" d="M 17 14 L 18 14 L 18 15 L 17 15 Z M 17 14 "/>
<path style=" stroke:none;fill-rule:nonzero;fill:rgb(100%,100%,100%);fill-opacity:1;" d="M 18 14 L 20 14 L 20 15 L 18 15 Z M 18 14 "/>
<path style=" stroke:none;fill-rule:nonzero;fill:rgb(0%,0%,0%);fill-opacity:1;" d="M 20 14 L 22 14 L 22 15 L 20 15 Z M 20 14 "/>
<path style=" stroke:none;fill-rule:nonzero;fill:rgb(29.411765%,91.764706%,41.176471%);fill-opacity:1;" d="M 22 14 L 23 14 L 23 15 L 22 15 Z M 22 14 "/>
<path style=" stroke:none;fill-rule:nonzero;fill:rgb(29.411765%,91.764706%,41.176471%);fill-opacity:1;" d="M 7 15 L 8 15 L 8 16 L 7 16 Z M 7 15 "/>
<path style=" stroke:none;fill-rule:nonzero;fill:rgb(29.411765%,91.764706%,41.176471%);fill-opacity:1;" d="M 10 15 L 11 15 L 11 16 L 10 16 Z M 10 15 "/>
<path style=" stroke:none;fill-rule:nonzero;fill:rgb(100%,100%,100%);fill-opacity:1;" d="M 11 15 L 13 15 L 13 16 L 11 16 Z M 11 15 "/>
<path style=" stroke:none;fill-rule:nonzero;fill:rgb(0%,0%,0%);fill-opacity:1;" d="M 13 15 L 15 15 L 15 16 L 13 16 Z M 13 15 "/>
<path style=" stroke:none;fill-rule:nonzero;fill:rgb(29.411765%,91.764706%,41.176471%);fill-opacity:1;" d="M 15 15 L 16 15 L 16 16 L 15 16 Z M 15 15 "/>
<path style=" stroke:none;fill-rule:nonzero;fill:rgb(29.411765%,91.764706%,41.176471%);fill-opacity:1;" d="M 17 15 L 18 15 L 18 16 L 17 16 Z M 17 15 "/>
<path style=" stroke:none;fill-rule:nonzero;fill:rgb(100%,100%,100%);fill-opacity:1;" d="M 18 15 L 20 15 L 20 16 L 18 16 Z M 18 15 "/>
<path style=" stroke:none;fill-rule:nonzero;fill:rgb(0%,0%,0%);fill-opacity:1;" d="M 20 15 L 22 15 L 22 16 L 20 16 Z M 20 15 "/>
<path style=" stroke:none;fill-rule:nonzero;fill:rgb(29.411765%,91.764706%,41.176471%);fill-opacity:1;" d="M 22 15 L 23 15 L 23 16 L 22 16 Z M 22 15 "/>
<path style=" stroke:none;fill-rule:nonzero;fill:rgb(29.411765%,91.764706%,41.176471%);fill-opacity:1;" d="M 10 16 L 16 16 L 16 17 L 10 17 Z M 10 16 "/>
<path style=" stroke:none;fill-rule:nonzero;fill:rgb(29.411765%,91.764706%,41.176471%);fill-opacity:1;" d="M 17 16 L 23 16 L 23 17 L 17 17 Z M 17 16 "/>
</g>
</svg>
